<svg xmlns="http://www.w3.org/2000/svg" width="878.49" height="536.319" viewBox="0 0 878.49 536.319"><defs><style>.a{fill:#3f3d56;}.b{fill:#4abcc4;}.c{fill:#2f2e41;}.d{fill:#f2f2f2;}.e{fill:#ffb8b8;}.f{fill:#8985a8;}</style></defs><path class="a" d="M237.817,675.2c7.193,26.591,31.833,43.06,31.833,43.06s12.976-26.644,5.783-53.236-31.833-43.06-31.833-43.06S230.623,648.611,237.817,675.2Z" transform="translate(-102.406 -209.38)"/><path class="b" d="M241.41,674.577c19.739,19.215,22.15,48.753,22.15,48.753s-29.592-1.616-49.331-20.831-22.15-48.753-22.15-48.753S221.671,655.362,241.41,674.577Z" transform="translate(-95.429 -214.469)"/><rect class="c" width="695.069" height="2.145" transform="translate(95.302 534.173)"/><path class="a" d="M282.415,762.7H254.526V734.808h27.889Zm-25.743-2.145h23.6v-23.6h-23.6Z" transform="translate(-105.43 -227.451)"/><rect class="a" width="236.352" height="236.352" transform="translate(0 21.267)"/><path class="b" d="M345.261,214.833v5.425a24.529,24.529,0,0,1-8.429-9.554c-3.147-6.436-3.047-13.854-2.947-21.03.114-8.529.228-16.573-5.183-21.813-5.951-5.752-15.477-4.941-24.689-4.158-1.082.085-2.164.185-3.232.27-9.241.7-19.535-1.637-24.532-7.945h6.236c4.57,3.075,11.561,4.158,17.983,3.673,1.039-.071,2.107-.171,3.175-.256,9.7-.826,20.688-1.766,28.021,5.339,6.749,6.521,6.621,15.89,6.493,24.945-.1,6.678-.185,13.569,2.52,19.093A19.527,19.527,0,0,0,345.261,214.833Z" transform="translate(-108.908 -134.763)"/><path class="b" d="M333.55,252.351v6.35a27.007,27.007,0,0,0-3.474-3.745c-7.347-6.478-17.9-7.9-28.092-9.3-1.324-.171-2.62-.356-3.915-.541-16.53-2.378-26.782-8.059-31.324-17.328-3.147-6.436-3.047-13.854-2.947-21.03.114-8.529.228-16.573-5.183-21.813-5.951-5.752-15.477-4.941-24.689-4.158-1.082.085-2.164.185-3.232.27-11.875.9-25.5-3.218-27.366-14.338-.641-3.816.313-7.318,1.723-10.693h4.67c-1.566,3.389-2.734,6.663-2.178,9.981,1.41,8.486,12.829,11.533,22.838,10.778,1.039-.071,2.107-.171,3.175-.256,9.7-.826,20.688-1.766,28.021,5.339,6.749,6.521,6.621,15.89,6.493,24.945-.1,6.678-.185,13.569,2.52,19.093,3.873,7.916,13.056,12.814,28.092,14.979,1.281.185,2.577.37,3.873.541,10.821,1.467,22.026,2.99,30.356,10.323Q333.23,252.03,333.55,252.351Z" transform="translate(-97.198 -134.763)"/><path class="b" d="M320.506,359.393v8.771c-5.14-5.467-9.44-12.971-12.729-22.354-.7-1.993-1.367-4.029-2.036-6.065-3.688-11.148-7.5-22.667-16.587-30.028-9.71-7.859-23.621-9.6-37.076-11.277-1.723-.214-3.446-.427-5.154-.655-21.813-2.89-35.325-9.767-41.319-21.015-4.158-7.817-4.029-16.815-3.9-25.515.157-10.337.313-20.1-6.834-26.454-7.845-6.977-20.417-5.994-32.562-5.04-1.438.114-2.862.228-4.257.327-15.676,1.082-33.659-3.9-36.108-17.385-1.21-6.606,1.879-12.458,4.855-18.125a46.131,46.131,0,0,0,4.158-9.511c1.737-6.535-.413-13.9-5.183-19.036h6.977a25.086,25.086,0,0,1,3.688,20.261,51.4,51.4,0,0,1-4.57,10.55c-2.72,5.154-5.268,10.024-4.371,15.007,1.879,10.28,16.929,13.982,30.128,13.071,1.381-.1,2.791-.214,4.2-.313,12.786-1.011,27.28-2.136,36.962,6.478,8.9,7.9,8.728,19.264,8.557,30.242-.114,8.1-.242,16.459,3.317,23.165,5.112,9.582,17.242,15.534,37.076,18.168,1.68.228,3.389.441,5.1.655,14.3,1.78,29.06,3.616,40.038,12.515,10.294,8.344,14.352,20.574,18.253,32.406.669,2.022,1.338,4.015,2.022,5.994a67.481,67.481,0,0,0,7.361,15.164Z" transform="translate(-84.154 -134.763)"/><path class="b" d="M77,257.946c6.493,7.859,20.261,10.764,32.605,9.91,1.4-.1,2.819-.214,4.257-.327,12.145-.954,24.717-1.936,32.563,5.04,7.148,6.35,6.991,16.118,6.834,26.454-.128,8.7-.256,17.7,3.9,25.515,5.994,11.248,19.506,18.125,41.319,21.015,1.709.228,3.431.441,5.154.655,13.455,1.68,27.366,3.417,37.076,11.277,9.084,7.361,12.9,18.88,16.587,30.028.669,2.036,1.338,4.072,2.036,6.065.641,1.837,1.324,3.588,2.036,5.282h6.094c-1.068-2.321-1.979-4.642-2.762-6.863-.683-1.979-1.353-3.972-2.022-5.994-3.9-11.832-7.959-24.062-18.253-32.406-10.978-8.9-25.742-10.736-40.038-12.515-1.709-.214-3.417-.427-5.1-.655-19.834-2.634-31.964-8.586-37.076-18.168-3.56-6.706-3.431-15.064-3.317-23.165.171-10.978.342-22.34-8.557-30.242-9.682-8.614-24.176-7.489-36.962-6.478-1.41.1-2.819.214-4.2.313-13.2.911-28.248-2.791-30.128-13.071-.9-4.983,1.652-9.853,4.371-15.007a51.4,51.4,0,0,0,4.57-10.55C90.669,213.893,86.155,202.631,77,196.48v6.977c5,5.154,7.276,12.686,5.51,19.378a46.129,46.129,0,0,1-4.158,9.511c-.456.869-.911,1.723-1.353,2.606Z" transform="translate(-77 -141.241)"/><path class="b" d="M181.55,422.925h-5.909c-.313-.926-.612-1.865-.926-2.8-3.688-11.148-7.5-22.667-16.587-30.028-9.71-7.859-23.621-9.6-37.076-11.277-1.723-.214-3.446-.427-5.154-.655-19.25-2.549-32.05-8.215-38.9-17.242V346.751a26.871,26.871,0,0,0,2.634,8.116c5.112,9.582,17.242,15.534,37.076,18.168,1.68.228,3.389.441,5.1.655,14.3,1.78,29.06,3.616,40.038,12.515,10.294,8.344,14.352,20.574,18.253,32.406C180.582,420.063,181.052,421.5,181.55,422.925Z" transform="translate(-77 -165.306)"/><rect class="a" width="236.352" height="236.352" transform="translate(320.357 21.267)"/><path class="b" d="M572.347,173.116a75.467,75.467,0,0,1-113.9,64.94V156.03H570.4A75.007,75.007,0,0,1,572.347,173.116Z" transform="translate(-138.086 -134.763)"/><circle class="b" cx="45.562" cy="45.562" r="45.562" transform="translate(449.923 39.776)"/><circle class="b" cx="32.748" cy="32.748" r="32.748" transform="translate(360.224 149.41)"/><path class="b" d="M730.631,390.577v38.728H683.774a32.75,32.75,0,0,1,46.857-38.728Z" transform="translate(-173.922 -171.686)"/><circle class="b" cx="8.543" cy="8.543" r="8.543" transform="translate(467.009 172.19)"/><rect class="a" width="236.352" height="236.352" transform="translate(642.138 21.267)"/><path class="b" d="M956.909,156.03v96.819H841.58v5.7H962.6V156.03Z" transform="translate(-199.443 -134.763)"/><path class="b" d="M1093.785,418.016l9.782-13.911v-9.9l-16.744,23.806ZM1054.061,316.1l-52.41,74.536,38.941,27.38h9.9l-40.906-28.761,45.861-65.225,48.125,33.844v-6.962Z" transform="translate(-225.077 -160.398)"/><path class="b" d="M954.493,304.86l-30.2,30.2,30.2,30.2,30.2-30.2Zm-22.154,30.2L954.493,312.9l22.154,22.154-22.154,22.154Z" transform="translate(-212.689 -158.598)"/><circle class="d" cx="21.453" cy="21.453" r="21.453" transform="translate(94.392 0)"/><circle class="d" cx="21.453" cy="21.453" r="21.453" transform="translate(425.837 0)"/><circle class="d" cx="21.453" cy="21.453" r="21.453" transform="translate(742.265 0)"/><circle class="e" cx="20.38" cy="20.38" r="20.38" transform="translate(404.921 105.655)"/><path class="e" d="M570.625,291.234s5.363,27.889,3.218,33.252,30.034-2.145,30.034-2.145-6.436-27.889-5.363-34.324S570.625,291.234,570.625,291.234Z" transform="translate(-156.051 -155.546)"/><path class="e" d="M451.479,276.507l2.145,28.961,10.647,45.483,3.3,12.439,5.363-19.307L467.568,300.1l-1.822-19.8Z" transform="translate(-72.301 -44.281)"/><path class="e" d="M659.1,402.106V432.14s-3.218,38.615-9.654,48.269-8.581-38.615-8.581-38.615l5.043-35.4Z" transform="translate(-167.3 -174.171)"/><path class="c" d="M548.392,512.529s-5.363,6.436-1.073,71.867-2.145,112.627,11.8,112.627c0,0-4.291,13.944,7.508,15.017s17.162,2.145,18.235-1.073,3.218-18.235,0-18.235c0,0,0,4.291,2.145-12.872s2.145-98.683,7.508-109.409l17.162,39.688s0,18.235,3.218,26.816,8.581,57.922,8.581,57.922l-1.073,7.508s25.743,4.291,26.816,0,1.073-10.726,0-12.872-1.073-2.145,1.073-6.436,2.145-7.508,1.073-10.726-1.073-72.939-1.073-72.939-2.145-84.738-15.017-89.029S548.392,512.529,548.392,512.529Z" transform="translate(-152.052 -191.275)"/><path class="c" d="M561.767,740.556l-8.581,15.017s-13.408-4.827-10.726,7.508c23.062,1.609,39.151-.536,39.151-.536s5.363,2.145,6.436-1.073-2.682-14.481-5.9-14.481S561.767,740.556,561.767,740.556Z" transform="translate(-151.484 -228.371)"/><path class="c" d="M638.432,734.686s-8.581,19.307-5.363,20.38,32.179,5.363,34.324,6.436,12.872,2.145,13.944-4.291-5.363-8.581-5.363-8.581-11.8-2.145-15.017-12.872S638.432,734.686,638.432,734.686Z" transform="translate(-165.935 -226.792)"/><path class="f" d="M599.682,325.022s-28.961-5.363-35.4,0-33.252,16.09-33.252,21.453S544.977,404.4,544.977,404.4s-7.508,79.375,0,81.52,20.38-4.291,35.4,3.218S638.3,482.7,638.3,482.7s-16.089-68.649-11.8-81.52,7.508-56.85,7.508-56.85S615.771,325.022,599.682,325.022Z" transform="translate(-149.71 -161.445)"/><path class="f" d="M536.411,347.188l-7.508,2.145s-16.09,50.414-9.654,52.559,24.671,6.436,26.816,6.436S536.411,347.188,536.411,347.188Z" transform="translate(-147.58 -165.376)"/><path class="f" d="M633.206,340.8l17.162,6.436s22.525,41.833,17.162,47.2S638.57,405.16,638.57,405.16Z" transform="translate(-166.073 -164.353)"/><path class="c" d="M578.232,250.768a11.519,11.519,0,0,0-5.1.225,13.293,13.293,0,0,0-3.623,2.377,42.4,42.4,0,0,1-6.195,4.1c-1.738.944-3.607,1.817-4.82,3.379a10.255,10.255,0,0,0-1.36,2.575,30.856,30.856,0,0,0-1.622,16.794,7.719,7.719,0,0,0,.715,2.306c1.115,2.054,3.577,2.863,5.651,3.94,3.938,2.044,6.923,5.487,10.153,8.529a19.849,19.849,0,0,0,4.012,3.092c4.608,2.512,10.24,1.693,15.413.8a2.778,2.778,0,0,0,2.772-2.8l4.083-18.364a29.961,29.961,0,0,0,1.046-8.352c-.285-4.458-2.7-10.633-5.97-13.8C589.577,251.883,583.215,251.3,578.232,250.768Z" transform="translate(-153.55 -149.905)"/><circle class="b" cx="8.465" cy="8.465" r="8.465" transform="translate(278.187 502.142)"/><path class="c" d="M413.647,758.468A24.453,24.453,0,1,1,438.1,734.014,24.453,24.453,0,0,1,413.647,758.468Zm0-47.025a22.572,22.572,0,1,0,22.572,22.572A22.572,22.572,0,0,0,413.647,711.442Z" transform="translate(-126.996 -223.408)"/><circle class="b" cx="8.465" cy="8.465" r="8.465" transform="translate(690.08 503.215)"/><path class="c" d="M904.08,759.745a24.453,24.453,0,1,1,24.453-24.453A24.453,24.453,0,0,1,904.08,759.745Zm0-47.025a22.572,22.572,0,1,0,22.572,22.572,22.572,22.572,0,0,0-22.572-22.572Z" transform="translate(-205.535 -223.612)"/><circle class="b" cx="8.465" cy="8.465" r="8.465" transform="translate(690.08 456.019)"/><path class="c" d="M904.08,703.549A24.453,24.453,0,1,1,928.533,679.1a24.453,24.453,0,0,1-24.453,24.453Zm0-47.025A22.572,22.572,0,1,0,926.652,679.1a22.572,22.572,0,0,0-22.572-22.572Z" transform="translate(-205.535 -214.613)"/></svg>