<svg xmlns="http://www.w3.org/2000/svg" width="18.062" height="19.083" viewBox="0 0 18.062 19.083">
  <g id="Rules" transform="translate(1.031 1)">
    <path id="Path_1061" data-name="Path 1061" d="M403.446,357.642v3.677l5.813,9.016c1.068,1.6,1.008,4.389-2.728,4.389h-9.347c-3.737,0-3.8-2.788-2.728-4.389l5.813-9.016v-3.677Zm-4.4,0h5.615m-7.962,9.234a4.067,4.067,0,0,0,2.887,1.443c2.728,0,2.234-4.112,5.674-4.112m-.793,4.157a1.71,1.71,0,1,0,1.71,1.71A1.71,1.71,0,0,0,404.471,368.364Z" transform="translate(-393.857 -357.642)" fill="none" stroke="#153c65" stroke-linecap="round" stroke-linejoin="round" stroke-width="2"/>
  </g>
</svg>
