<svg id="Logo" xmlns="http://www.w3.org/2000/svg" xmlns:xlink="http://www.w3.org/1999/xlink" width="160" height="38.78" viewBox="0 0 160 38.78">
  <defs>
    <linearGradient id="linear-gradient" x1="1.187" y1="3.421" x2="1.199" y2="3.421" gradientUnits="objectBoundingBox">
      <stop offset="0" stop-color="#7cc151" stop-opacity="0.698"/>
      <stop offset="1" stop-color="#7cc151" stop-opacity="0.698"/>
    </linearGradient>
    <linearGradient id="linear-gradient-2" x1="1.106" y1="3.881" x2="1.118" y2="3.881" gradientUnits="objectBoundingBox">
      <stop offset="0" stop-color="#66c08a" stop-opacity="0.639"/>
      <stop offset="1" stop-color="#66c08a" stop-opacity="0.639"/>
    </linearGradient>
    <linearGradient id="linear-gradient-3" x1="2.312" y1="2.487" x2="2.33" y2="2.487" gradientUnits="objectBoundingBox">
      <stop offset="0" stop-color="#63c5bd" stop-opacity="0.671"/>
      <stop offset="1" stop-color="#63c5bd" stop-opacity="0.671"/>
    </linearGradient>
    <linearGradient id="linear-gradient-4" x1="2.301" y1="3.182" x2="2.32" y2="3.182" gradientUnits="objectBoundingBox">
      <stop offset="0" stop-color="#33b3ca" stop-opacity="0.651"/>
      <stop offset="1" stop-color="#33b3ca" stop-opacity="0.651"/>
    </linearGradient>
  </defs>
  <path id="path6" d="M85.238,110.7V88.169l2.424-.808V110.7Z" transform="translate(-55.754 -79.583)" fill="#fff"/>
  <path id="path8" d="M116.115,117.085V115.35a12.936,12.936,0,0,1-2.1,1.655,7.141,7.141,0,0,1-2.026.887,12.719,12.719,0,0,1-1.513.3,12.224,12.224,0,0,1-1.321.066,8.7,8.7,0,0,1-6.566-2.609,9.379,9.379,0,0,1,0-12.779,8.712,8.712,0,0,1,6.566-2.6,12.458,12.458,0,0,1,1.321.053,12.719,12.719,0,0,1,1.513.3,7.537,7.537,0,0,1,2.026.887,11.63,11.63,0,0,1,2.1,1.655v-2.463h2.424v16.421a7.674,7.674,0,0,1-2.642,6,9.483,9.483,0,0,1-6.514,2.344,12.569,12.569,0,0,1-6.437-1.7L104,121.932a12.278,12.278,0,0,0,5.424,1.245,8.4,8.4,0,0,0,2.09-.278,8.216,8.216,0,0,0,2.167-.927,4.767,4.767,0,0,0,1.77-1.92,6.225,6.225,0,0,0,.667-2.966Zm-11.682-12.607a6.838,6.838,0,0,0,0,9.588,6.634,6.634,0,0,0,4.822,1.894,6.809,6.809,0,0,0,4.873-1.894,6.791,6.791,0,0,0-.013-9.588,7.134,7.134,0,0,0-9.682,0Z" transform="translate(-64.139 -86.701)" fill="#fff"/>
  <path id="path10" d="M166.455,117.813V108.2q0-5.6-4.668-5.6a5.042,5.042,0,0,0-4.283,2.079,6.562,6.562,0,0,0-1.564,3.84v9.3h-2.424v-17.07h2.424v2.649a7,7,0,0,1,6.155-3.112,6.859,6.859,0,0,1,3.18.7,5.965,5.965,0,0,1,2.013,1.589,7.766,7.766,0,0,1,1.052,2.039,10.222,10.222,0,0,1,.462,1.748,8.2,8.2,0,0,1,.077,1.006v10.422h-2.424Z" transform="translate(-94.346 -86.701)" fill="#fff"/>
  <path id="path12" d="M199.71,115.655a9.379,9.379,0,0,1,0-12.779,8.712,8.712,0,0,1,6.566-2.6,12.458,12.458,0,0,1,1.321.053,12.717,12.717,0,0,1,1.513.3,7.536,7.536,0,0,1,2.026.887,11.629,11.629,0,0,1,2.1,1.655v-2.463h2.424v17.07h-2.424v-2.463a12.933,12.933,0,0,1-2.1,1.655,7.14,7.14,0,0,1-2.026.887,12.72,12.72,0,0,1-1.513.3,12.224,12.224,0,0,1-1.321.066A8.577,8.577,0,0,1,199.71,115.655Zm1.872-11.177a6.838,6.838,0,0,0,0,9.588,6.634,6.634,0,0,0,4.822,1.894,6.809,6.809,0,0,0,4.873-1.894,6.79,6.79,0,0,0-.013-9.588,7.134,7.134,0,0,0-9.682,0Z" transform="translate(-119.036 -86.701)" fill="#fff"/>
  <path id="path14" d="M247.484,94.977V92.7h3.975v-6.29l2.424-.728V92.7h5.027v2.278h-5.027v8.595a5.166,5.166,0,0,0,.09,1.059,6.626,6.626,0,0,0,.449,1.218,2.389,2.389,0,0,0,1.27,1.192,5.736,5.736,0,0,0,2.36.424,6.109,6.109,0,0,0,.821-.04v2.3q-.962.04-2.193.04a8.625,8.625,0,0,1-.872-.04,5.842,5.842,0,0,1-1.282-.384,4.2,4.2,0,0,1-1.487-.94,5.514,5.514,0,0,1-1.09-1.894,8.913,8.913,0,0,1-.487-3.112V94.977Z" transform="translate(-147.459 -78.657)" fill="#fff"/>
  <path id="path16" d="M281.963,89.182a1.76,1.76,0,0,1,.487-1.245,1.522,1.522,0,0,1,1.154-.516,1.564,1.564,0,0,1,1.193.516,1.783,1.783,0,0,1,.487,1.245,1.577,1.577,0,0,1-.487,1.165,1.627,1.627,0,0,1-1.193.477,1.581,1.581,0,0,1-1.154-.477A1.6,1.6,0,0,1,281.963,89.182Zm.436,21.546V94.412l2.424-.755v17.07Z" transform="translate(-166.947 -79.616)" fill="#fff"/>
  <path id="path18" d="M300.272,115.655a9.414,9.414,0,0,1,0-12.779,8.521,8.521,0,0,1,6.437-2.6,9.032,9.032,0,0,1,5.04,1.364,7.516,7.516,0,0,1,3.026,4h-2.424a4.821,4.821,0,0,0-2.244-2.278,7.681,7.681,0,0,0-3.5-.781,6.119,6.119,0,0,0-4.6,1.867,7.312,7.312,0,0,0,0,9.628,6.1,6.1,0,0,0,4.6,1.88,7.665,7.665,0,0,0,3.488-.781,4.849,4.849,0,0,0,2.257-2.278h2.424a7.422,7.422,0,0,1-3.026,3.986,9.128,9.128,0,0,1-5.04,1.377,8.464,8.464,0,0,1-6.437-2.609Z" transform="translate(-175.882 -86.701)" fill="#fff"/>
  <path id="path20" d="M345.47,115.655a9.379,9.379,0,0,1,0-12.779,8.712,8.712,0,0,1,6.566-2.6,12.459,12.459,0,0,1,1.321.053,12.718,12.718,0,0,1,1.513.3,7.536,7.536,0,0,1,2.026.887,11.63,11.63,0,0,1,2.1,1.655v-2.463h2.424v17.07h-2.411v-2.463a12.935,12.935,0,0,1-2.1,1.655,7.139,7.139,0,0,1-2.026.887,12.719,12.719,0,0,1-1.513.3,12.221,12.221,0,0,1-1.321.066,8.586,8.586,0,0,1-6.578-2.582Zm1.872-11.177a6.838,6.838,0,0,0,0,9.588,6.634,6.634,0,0,0,4.822,1.894,6.809,6.809,0,0,0,4.873-1.894,6.791,6.791,0,0,0-.013-9.588,7.134,7.134,0,0,0-9.682,0Z" transform="translate(-201.422 -86.701)" fill="#fff"/>
  <g id="g29" transform="translate(6.183 19.139)">
    <path id="path27" d="M-13.451,106.665a2.74,2.74,0,0,0,2.7-2.793c0-2.4,1.154-3.593,3.479-3.593,2.308,0,3.479,1.192,3.479,3.593a2.74,2.74,0,0,0,2.7,2.793,2.74,2.74,0,0,0,2.7-2.793,2.74,2.74,0,0,0-2.7-2.793c-2.325,0-3.479-1.192-3.479-3.593a2.74,2.74,0,0,0-2.7-2.793,2.74,2.74,0,0,0-2.7,2.793c0,2.4-1.154,3.593-3.479,3.593a2.74,2.74,0,0,0-2.7,2.793A2.751,2.751,0,0,0-13.451,106.665Z" transform="translate(16.155 -94.695)" fill-rule="evenodd" fill="url(#linear-gradient)"/>
  </g>
  <g id="g38" transform="translate(6.183 12.771)">
    <path id="path36" d="M-1.085,80.511a2.74,2.74,0,0,0-2.7,2.793c0,2.4-1.154,3.593-3.479,3.593-2.308,0-3.479-1.192-3.479-3.593a2.74,2.74,0,0,0-2.7-2.793,2.74,2.74,0,0,0-2.7,2.793,2.74,2.74,0,0,0,2.7,2.793c2.325,0,3.479,1.192,3.479,3.593a2.74,2.74,0,0,0,2.7,2.793,2.74,2.74,0,0,0,2.7-2.793c0-2.4,1.154-3.593,3.479-3.593a2.74,2.74,0,0,0,2.7-2.793,2.762,2.762,0,0,0-2.7-2.793Z" transform="translate(16.155 -80.511)" fill-rule="evenodd" fill="url(#linear-gradient-2)"/>
  </g>
  <g id="g47" transform="translate(0 12.754)">
    <path id="path45" d="M-18.785,96.037a2.74,2.74,0,0,0-2.7-2.793c-2.325,0-3.479-1.192-3.479-3.593,0-2.384,1.154-3.593,3.479-3.593a2.74,2.74,0,0,0,2.7-2.793,2.74,2.74,0,0,0-2.7-2.793,2.74,2.74,0,0,0-2.7,2.793c0,2.4-1.154,3.593-3.479,3.593a2.74,2.74,0,0,0-2.7,2.793,2.74,2.74,0,0,0,2.7,2.793c2.325,0,3.479,1.192,3.479,3.593a2.74,2.74,0,0,0,2.7,2.793,2.74,2.74,0,0,0,2.7-2.793Z" transform="translate(30.377 -80.473)" fill-rule="evenodd" fill="url(#linear-gradient-3)"/>
  </g>
  <g id="g56">
    <path id="path54" d="M-18.785,67.632a2.74,2.74,0,0,0-2.7-2.793c-2.325,0-3.479-1.192-3.479-3.593,0-2.384,1.154-3.593,3.479-3.593a2.74,2.74,0,0,0,2.7-2.793,2.74,2.74,0,0,0-2.7-2.793,2.74,2.74,0,0,0-2.7,2.793c0,2.4-1.154,3.593-3.479,3.593a2.74,2.74,0,0,0-2.7,2.793,2.74,2.74,0,0,0,2.7,2.793c2.325,0,3.479,1.192,3.479,3.593a2.74,2.74,0,0,0,2.7,2.793,2.74,2.74,0,0,0,2.7-2.793Z" transform="translate(30.377 -52.069)" fill-rule="evenodd" fill="url(#linear-gradient-4)"/>
  </g>
</svg>
