<?xml version="1.0" encoding="utf-8"?>
<!-- Generator: Adobe Illustrator 25.2.3, SVG Export Plug-In . SVG Version: 6.00 Build 0)  -->
<svg version="1.1" id="Layer_1" xmlns="http://www.w3.org/2000/svg" xmlns:xlink="http://www.w3.org/1999/xlink" x="0px" y="0px"
	 viewBox="0 0 160 38.8" style="enable-background:new 0 0 160 38.8;" xml:space="preserve">
<style type="text/css">
	.st0{fill:#153C65;}
	.st1{fill-rule:evenodd;clip-rule:evenodd;fill:url(#path27_1_);}
	.st2{fill-rule:evenodd;clip-rule:evenodd;fill:url(#path36_1_);}
	.st3{fill-rule:evenodd;clip-rule:evenodd;fill:url(#path45_1_);}
	.st4{fill-rule:evenodd;clip-rule:evenodd;fill:url(#path54_1_);}
</style>
<path id="path6" class="st0" d="M29.5,31.1V8.6l2.4-0.8v23.3H29.5z"/>
<path id="path8" class="st0" d="M52,30.4v-1.7c-0.6,0.6-1.3,1.2-2.1,1.7c-0.6,0.4-1.3,0.7-2,0.9c-0.5,0.1-1,0.2-1.5,0.3
	c-0.4,0-0.9,0.1-1.3,0.1c-2.5,0.1-4.8-0.8-6.6-2.6c-3.4-3.6-3.4-9.2,0-12.8c1.7-1.8,4.1-2.7,6.6-2.6c0.4,0,0.9,0,1.3,0.1
	c0.5,0.1,1,0.2,1.5,0.3c0.7,0.2,1.4,0.5,2,0.9c0.8,0.5,1.5,1,2.1,1.7V14h2.4v16.4c0.1,2.3-0.9,4.5-2.6,6c-1.8,1.6-4.1,2.4-6.5,2.3
	c-2.3,0-4.5-0.6-6.4-1.7l1.1-1.8c1.7,0.8,3.5,1.3,5.4,1.2c0.7,0,1.4-0.1,2.1-0.3c0.8-0.2,1.5-0.5,2.2-0.9c0.8-0.5,1.4-1.1,1.8-1.9
	C51.8,32.4,52,31.4,52,30.4L52,30.4z M40.3,17.8c-2.6,2.7-2.6,6.9,0,9.6c1.3,1.3,3,1.9,4.8,1.9c1.8,0,3.6-0.6,4.9-1.9
	c2.6-2.7,2.6-6.9,0-9.6C47.2,15.3,43,15.3,40.3,17.8z"/>
<path id="path10" class="st0" d="M72.1,31.1v-9.6c0-3.7-1.6-5.6-4.7-5.6c-1.7-0.1-3.3,0.7-4.3,2.1c-0.9,1.1-1.5,2.4-1.6,3.8v9.3
	h-2.4V14h2.4v2.6c1.4-2,3.7-3.2,6.2-3.1c1.1,0,2.2,0.2,3.2,0.7c0.8,0.4,1.5,0.9,2,1.6c0.4,0.6,0.8,1.3,1.1,2
	c0.2,0.6,0.4,1.2,0.5,1.7c0,0.3,0.1,0.7,0.1,1v10.4L72.1,31.1L72.1,31.1z"/>
<path id="path12" class="st0" d="M80.7,29c-3.4-3.6-3.4-9.2,0-12.8c1.7-1.8,4.1-2.7,6.6-2.6c0.4,0,0.9,0,1.3,0.1
	c0.5,0.1,1,0.2,1.5,0.3c0.7,0.2,1.4,0.5,2,0.9c0.8,0.5,1.5,1,2.1,1.7V14h2.4v17.1h-2.4v-2.5c-0.6,0.6-1.3,1.2-2.1,1.7
	c-0.6,0.4-1.3,0.7-2,0.9c-0.5,0.1-1,0.2-1.5,0.3c-0.4,0-0.9,0.1-1.3,0.1C84.8,31.6,82.4,30.7,80.7,29z M82.5,17.8
	c-2.6,2.7-2.6,6.9,0,9.6c1.3,1.3,3,1.9,4.8,1.9c1.8,0,3.6-0.6,4.9-1.9c2.6-2.7,2.6-6.9,0-9.6C89.5,15.3,85.3,15.3,82.5,17.8z"/>
<path id="path14" class="st0" d="M100,16.3V14h4V7.8l2.4-0.7v7h5v2.3h-5v8.6c0,0.4,0,0.7,0.1,1.1c0.1,0.4,0.3,0.8,0.4,1.2
	c0.3,0.5,0.7,1,1.3,1.2c0.7,0.3,1.6,0.5,2.4,0.4c0.3,0,0.5,0,0.8,0v2.3c-0.6,0-1.4,0-2.2,0c-0.3,0-0.6,0-0.9,0
	c-0.4-0.1-0.9-0.2-1.3-0.4c-0.6-0.2-1.1-0.5-1.5-0.9c-0.5-0.6-0.9-1.2-1.1-1.9c-0.3-1-0.5-2.1-0.5-3.1v-8.4H100z"/>
<path id="path16" class="st0" d="M115,9.6c0-0.5,0.2-0.9,0.5-1.2c0.3-0.3,0.7-0.5,1.2-0.5c0.5,0,0.9,0.2,1.2,0.5
	c0.3,0.3,0.5,0.8,0.5,1.2c0,0.4-0.2,0.9-0.5,1.2c-0.3,0.3-0.7,0.5-1.2,0.5c-0.4,0-0.9-0.2-1.2-0.5C115.2,10.4,115,10,115,9.6z
	 M115.5,31.1V14.8l2.4-0.8v17.1L115.5,31.1z"/>
<path id="path18" class="st0" d="M124.4,29c-3.3-3.6-3.3-9.2,0-12.8c1.7-1.7,4-2.7,6.4-2.6c1.8-0.1,3.5,0.4,5,1.4
	c1.4,0.9,2.5,2.4,3,4h-2.4c-0.5-1-1.3-1.8-2.2-2.3c-1.1-0.5-2.3-0.8-3.5-0.8c-1.7-0.1-3.4,0.6-4.6,1.9c-2.4,2.8-2.4,6.9,0,9.6
	c1.2,1.3,2.9,1.9,4.6,1.9c1.2,0,2.4-0.2,3.5-0.8c1-0.5,1.8-1.3,2.3-2.3h2.4c-0.5,1.6-1.6,3-3,4c-1.5,0.9-3.3,1.4-5,1.4
	C128.4,31.7,126.1,30.7,124.4,29L124.4,29z"/>
<path id="path20" class="st0" d="M144,29c-3.4-3.6-3.4-9.2,0-12.8c1.7-1.8,4.1-2.7,6.6-2.6c0.4,0,0.9,0,1.3,0.1
	c0.5,0.1,1,0.2,1.5,0.3c0.7,0.2,1.4,0.5,2,0.9c0.8,0.5,1.5,1,2.1,1.7V14h2.4v17.1h-2.4v-2.5c-0.6,0.6-1.3,1.2-2.1,1.7
	c-0.6,0.4-1.3,0.7-2,0.9c-0.5,0.1-1,0.2-1.5,0.3c-0.4,0-0.9,0.1-1.3,0.1C148.2,31.6,145.8,30.7,144,29L144,29z M145.9,17.8
	c-2.6,2.7-2.6,6.9,0,9.6c1.3,1.3,3,1.9,4.8,1.9c1.8,0,3.6-0.6,4.9-1.9c2.6-2.7,2.6-6.9,0-9.6C152.9,15.3,148.7,15.3,145.9,17.8
	L145.9,17.8z"/>
<g id="g29" transform="translate(6.183 19.139)">
	
		<linearGradient id="path27_1_" gradientUnits="userSpaceOnUse" x1="-209.7769" y1="386.6725" x2="-209.7649" y2="386.6725" gradientTransform="matrix(17.7591 0 0 -11.972 3746.5229 4635.2271)">
		<stop  offset="0" style="stop-color:#7CC151;stop-opacity:0.698"/>
		<stop  offset="1" style="stop-color:#7CC151;stop-opacity:0.698"/>
	</linearGradient>
	<path id="path27" class="st1" d="M2.7,12c1.5,0,2.7-1.3,2.7-2.8c0,0,0,0,0,0c0-2.4,1.2-3.6,3.5-3.6c2.3,0,3.5,1.2,3.5,3.6
		c0,1.5,1.2,2.8,2.7,2.8c0,0,0,0,0,0c1.5,0,2.7-1.3,2.7-2.8c0,0,0,0,0,0c0-1.5-1.2-2.8-2.7-2.8c0,0,0,0,0,0c-2.3,0-3.5-1.2-3.5-3.6
		c0-1.5-1.2-2.8-2.7-2.8c0,0,0,0,0,0C7.4,0,6.2,1.3,6.2,2.8c0,0,0,0,0,0c0,2.4-1.2,3.6-3.5,3.6C1.2,6.4,0,7.7,0,9.2c0,0,0,0,0,0
		C0,10.7,1.2,11.9,2.7,12z"/>
</g>
<g id="g38" transform="translate(6.183 12.771)">
	
		<linearGradient id="path36_1_" gradientUnits="userSpaceOnUse" x1="-209.8579" y1="393.0405" x2="-209.8459" y2="393.0405" gradientTransform="matrix(17.7591 0 0 -11.972 3746.5305 4711.4668)">
		<stop  offset="0" style="stop-color:#66C08A;stop-opacity:0.639"/>
		<stop  offset="1" style="stop-color:#66C08A;stop-opacity:0.639"/>
	</linearGradient>
	<path id="path36" class="st2" d="M15.1,0c-1.5,0-2.7,1.3-2.7,2.8c0,0,0,0,0,0c0,2.4-1.2,3.6-3.5,3.6c-2.3,0-3.5-1.2-3.5-3.6
		C5.4,1.3,4.2,0,2.7,0c0,0,0,0,0,0C1.2,0,0,1.3,0,2.8c0,0,0,0,0,0c0,1.5,1.2,2.8,2.7,2.8c0,0,0,0,0,0c2.3,0,3.5,1.2,3.5,3.6
		c0,1.5,1.2,2.8,2.7,2.8c0,0,0,0,0,0c1.5,0,2.7-1.3,2.7-2.8c0,0,0,0,0,0c0-2.4,1.2-3.6,3.5-3.6c1.5,0,2.7-1.3,2.7-2.8c0,0,0,0,0,0
		C17.8,1.3,16.6,0,15.1,0z"/>
</g>
<g id="g47" transform="translate(0 12.754)">
	
		<linearGradient id="path45_1_" gradientUnits="userSpaceOnUse" x1="-195.9489" y1="404.738" x2="-195.9309" y2="404.738" gradientTransform="matrix(11.5801 0 0 -18.358 2295.8857 7439.3594)">
		<stop  offset="0" style="stop-color:#63C5BD;stop-opacity:0.671"/>
		<stop  offset="1" style="stop-color:#63C5BD;stop-opacity:0.671"/>
	</linearGradient>
	<path id="path45" class="st3" d="M11.6,15.6c0-1.5-1.2-2.8-2.7-2.8c0,0,0,0,0,0c-2.3,0-3.5-1.2-3.5-3.6c0-2.4,1.2-3.6,3.5-3.6
		c1.5,0,2.7-1.3,2.7-2.8c0,0,0,0,0,0c0-1.5-1.2-2.8-2.7-2.8c0,0,0,0,0,0C7.4,0,6.2,1.3,6.2,2.8c0,0,0,0,0,0c0,2.4-1.2,3.6-3.5,3.6
		C1.2,6.4,0,7.7,0,9.2c0,0,0,0,0,0c0,1.5,1.2,2.8,2.7,2.8c0,0,0,0,0,0c2.3,0,3.5,1.2,3.5,3.6c0,1.5,1.2,2.8,2.7,2.8c0,0,0,0,0,0
		C10.4,18.3,11.6,17.1,11.6,15.6C11.6,15.6,11.6,15.6,11.6,15.6z"/>
</g>
<g id="g56">
	
		<linearGradient id="path54_1_" gradientUnits="userSpaceOnUse" x1="-195.9599" y1="417.492" x2="-195.9409" y2="417.492" gradientTransform="matrix(11.5801 0 0 -18.358 2295.8857 7673.4961)">
		<stop  offset="0" style="stop-color:#33B3CA;stop-opacity:0.651"/>
		<stop  offset="1" style="stop-color:#33B3CA;stop-opacity:0.651"/>
	</linearGradient>
	<path id="path54" class="st4" d="M11.6,15.6c0-1.5-1.2-2.8-2.7-2.8c0,0,0,0,0,0c-2.3,0-3.5-1.2-3.5-3.6c0-2.4,1.2-3.6,3.5-3.6
		c1.5,0,2.7-1.3,2.7-2.8c0,0,0,0,0,0c0-1.5-1.2-2.8-2.7-2.8c0,0,0,0,0,0C7.4,0,6.2,1.3,6.2,2.8c0,0,0,0,0,0c0,2.4-1.2,3.6-3.5,3.6
		C1.2,6.4,0,7.7,0,9.2c0,0,0,0,0,0c0,1.5,1.2,2.8,2.7,2.8c0,0,0,0,0,0c2.3,0,3.5,1.2,3.5,3.6c0,1.5,1.2,2.8,2.7,2.8c0,0,0,0,0,0
		C10.4,18.3,11.6,17.1,11.6,15.6C11.6,15.6,11.6,15.6,11.6,15.6z"/>
</g>
</svg>
