<svg xmlns="http://www.w3.org/2000/svg" width="16.863" height="18.289" viewBox="0 0 16.863 18.289">
  <g id="Rules-blue" transform="translate(1 1.407)">
    <path id="Path_1222" data-name="Path 1222" d="M9.968,12.684h5.913M4.587,7.088l-1.791,0a2.8,2.8,0,1,0,0,5.593H7.085M9.968,1.444H12.8a2.8,2.8,0,1,1,0,5.593l-5.333.04M-.119,1.444h7.2m2.88,11.24a1.443,1.443,0,1,1-1.443-1.443A1.443,1.443,0,0,1,9.965,12.684Zm-2.5-5.6A1.443,1.443,0,1,1,6.023,5.645,1.443,1.443,0,0,1,7.466,7.088Zm2.5-5.645A1.443,1.443,0,1,1,8.522,0,1.443,1.443,0,0,1,9.965,1.443Zm3.442,13.713,2.467-2.467-2.467-2.467" transform="translate(0 15.881) rotate(-90)" fill="none" stroke="#153c65" stroke-width="2"/>
  </g>
</svg>
