<svg xmlns="http://www.w3.org/2000/svg" width="14.115" height="15.098" viewBox="0 0 14.115 15.098">
  <g id="Rules" transform="translate(0.5 0.701)">
    <path id="Path_1222" data-name="Path 1222" d="M8.826,11.1H14M4.117,6.2,2.55,6.2a2.447,2.447,0,1,0,0,4.894H6.3M8.826,1.264h2.481a2.447,2.447,0,1,1,0,4.894L6.64,6.192M0,1.264H6.3M8.823,11.1A1.263,1.263,0,1,1,7.56,9.836,1.263,1.263,0,0,1,8.823,11.1ZM6.637,6.2A1.263,1.263,0,1,1,5.374,4.94,1.263,1.263,0,0,1,6.637,6.2Zm2.186-4.94A1.263,1.263,0,1,1,7.56,0,1.263,1.263,0,0,1,8.823,1.263Zm3.012,12L13.994,11.1,11.835,8.943" transform="translate(0 14) rotate(-90)" fill="none" stroke="#fff" stroke-width="1"/>
  </g>
</svg>
